# xmcd
#
# Track frame offsets:
#	150
#	11822
#	28102
#	39500
#	53610
#	64707
#	76540
#	90462
#	102140
#	113382
#	125177
#	134282
#	143212
#	154950
#
# Disc length: 2231 seconds
#
# Revision: 0
# Processed by: cddbd v1.5.1PL2 Copyright (c) Steve Scherf et al.
# Submitted via: audiograbber 1.83.01
#
DISCID=ad08b50e
DTITLE=VÁRIOS - ISTO É QUE É FORRÓ - VOL. 2
DYEAR=1900
DGENRE=
TTITLE0=TRIO NORDESTINO - FORRÓ NO TREMEMBÉ
TTITLE1=HÉLIO REIS - ASA BRANCA
TTITLE2=FRANCISCO BARRETO - MEU LIMÃO, MEU LIMOEIRO
TTITLE3=SEVERINA - ASSUM PRETO
TTITLE4=MANOEL DAVID - XAXADINHO DAS ALAGOAS
TTITLE5=ARY LOBO - CONSEQUÊNCIAS DA BEBIDA
TTITLE6=GUARACI DO PANDEIRO - SÚPLICA DE CEARENSE
TTITLE7=ALOÍSIO GOMES - TUDO É BAIANO
TTITLE8=MANÉ BAIÃO - AI, AI, UI, UI
TTITLE9=TITULARES DO RITMO - VATAPÁ DA YAYÁ
TTITLE10=TRIO CEARENSE - O CONTO DO BAÚ
TTITLE11=ZITO BORBOREMA - MATA SETE
TTITLE12=OS CAÇULAS DO BAIÃO - NOVO LAMPIÃO
TTITLE13=CIÇO DO PARÁ - CHAPÉU DE COURO
EXTD=
EXTT0=
EXTT1=
EXTT2=
EXTT3=
EXTT4=
EXTT5=
EXTT6=
EXTT7=
EXTT8=
EXTT9=
EXTT10=
EXTT11=
EXTT12=
EXTT13=
PLAYORDER=
